<svg xmlns="http://www.w3.org/2000/svg" xmlns:xlink="http://www.w3.org/1999/xlink" width="375" zoomAndPan="magnify" viewBox="0 0 281.25 500.249987" height="667" preserveAspectRatio="xMidYMid meet" version="1.0"><defs><clipPath id="677c1f36ea"><path d="M 0 0.292969 L 280.503906 0.292969 L 280.503906 499.210938 L 0 499.210938 Z M 0 0.292969 " clip-rule="nonzero"/></clipPath><clipPath id="bd4b519a51"><path d="M 184 449 L 204 449 L 204 499.210938 L 184 499.210938 Z M 184 449 " clip-rule="nonzero"/></clipPath><clipPath id="9a2b60f0d4"><path d="M 0 133 L 280.503906 133 L 280.503906 499.210938 L 0 499.210938 Z M 0 133 " clip-rule="nonzero"/></clipPath><clipPath id="6a158248a3"><path d="M 220 490 L 280.503906 490 L 280.503906 499.210938 L 220 499.210938 Z M 220 490 " clip-rule="nonzero"/></clipPath><clipPath id="f145cca822"><path d="M 146 459 L 194 459 L 194 499.210938 L 146 499.210938 Z M 146 459 " clip-rule="nonzero"/></clipPath><clipPath id="55ea9e6c52"><path d="M 2 128.222656 L 272 128.222656 L 272 499.210938 L 2 499.210938 Z M 2 128.222656 " clip-rule="nonzero"/></clipPath><clipPath id="471c2428ba"><path d="M 0 161 L 218 161 L 218 499.210938 L 0 499.210938 Z M 0 161 " clip-rule="nonzero"/></clipPath><clipPath id="9ea2ee8ed4"><path d="M 119 398 L 226 398 L 226 499.210938 L 119 499.210938 Z M 119 398 " clip-rule="nonzero"/></clipPath><clipPath id="ee2856e64a"><path d="M 33 463 L 267 463 L 267 499.210938 L 33 499.210938 Z M 33 463 " clip-rule="nonzero"/></clipPath><clipPath id="ad957ac5fd"><path d="M 33 366 L 167 366 L 167 499.210938 L 33 499.210938 Z M 33 366 " clip-rule="nonzero"/></clipPath><clipPath id="4fe6770952"><path d="M 122 448 L 235 448 L 235 499.210938 L 122 499.210938 Z M 122 448 " clip-rule="nonzero"/></clipPath><clipPath id="74cd078f46"><path d="M 171 496 L 175 496 L 175 499.210938 L 171 499.210938 Z M 171 496 " clip-rule="nonzero"/></clipPath></defs><g clip-path="url(#677c1f36ea)"><path fill="#ffffff" d="M 0 0.292969 L 281.25 0.292969 L 281.25 507.4375 L 0 507.4375 Z M 0 0.292969 " fill-opacity="1" fill-rule="nonzero"/><path fill="#ffffff" d="M 0 0.292969 L 280.503906 0.292969 L 280.503906 499.210938 L 0 499.210938 Z M 0 0.292969 " fill-opacity="1" fill-rule="nonzero"/><path fill="#000000" d="M 0 0.292969 L 280.503906 0.292969 L 280.503906 499.210938 L 0 499.210938 Z M 0 0.292969 " fill-opacity="1" fill-rule="nonzero"/></g><path fill="#41e1f2" d="M 142.175781 440.886719 L 141.984375 440.71875 L 94.449219 495.082031 L 94.640625 495.25 Z M 142.175781 440.886719 " fill-opacity="1" fill-rule="nonzero"/><path fill="#41e1f2" d="M 173.144531 497.769531 L 173.207031 497.519531 L 33.585938 463.433594 L 7.855469 405.941406 L 119.445312 398.964844 L 119.429688 398.710938 L 7.46875 405.710938 L 33.40625 463.652344 L 33.46875 463.664062 Z M 173.144531 497.769531 " fill-opacity="1" fill-rule="nonzero"/><path fill="#41e1f2" d="M 19.332031 267.441406 L 19.078125 267.421875 L 7.539062 405.816406 L 7.792969 405.839844 Z M 19.332031 267.441406 " fill-opacity="1" fill-rule="nonzero"/><g clip-path="url(#bd4b519a51)"><path fill="#41e1f2" d="M 185.046875 502.972656 L 193.578125 461.160156 L 203.933594 449.800781 L 203.746094 449.628906 L 193.34375 461.042969 L 193.335938 461.074219 L 184.796875 502.921875 Z M 185.046875 502.972656 " fill-opacity="1" fill-rule="nonzero"/></g><g clip-path="url(#9a2b60f0d4)"><path fill="#41e1f2" d="M 336.160156 593.742188 L 336.382812 593.617188 C 331.15625 584.367188 325.195312 583.519531 319.429688 582.695312 C 313.738281 581.886719 307.855469 581.046875 302.703125 571.964844 C 297.519531 562.800781 292.320312 553.617188 287.699219 545.457031 L 271.492188 516.835938 L 271.429688 516.824219 L 184.304688 502.917969 L 139.617188 412.796875 L 104.449219 331.253906 L 86.148438 286.53125 L 86.136719 286.515625 L 30.699219 215.539062 L -14.222656 133.457031 L -14.445312 133.578125 L 30.488281 215.679688 L 30.492188 215.6875 L 85.925781 286.660156 L 104.21875 331.351562 L 139.386719 412.90625 L 184.140625 503.152344 L 184.203125 503.160156 L 271.335938 517.070312 L 287.480469 545.585938 C 292.101562 553.746094 297.296875 562.929688 302.484375 572.09375 C 307.695312 581.285156 313.644531 582.128906 319.394531 582.949219 C 325.097656 583.761719 331 584.601562 336.164062 593.742188 Z M 336.160156 593.742188 " fill-opacity="1" fill-rule="nonzero"/></g><g clip-path="url(#6a158248a3)"><path fill="#41e1f2" d="M 296.527344 574.605469 L 296.71875 574.441406 L 224.828125 490.796875 L 220.292969 512 L 220.390625 512.039062 L 254.734375 526.226562 L 254.800781 526.0625 Z M 224.96875 491.355469 L 254.691406 525.933594 L 220.585938 511.847656 Z M 224.96875 491.355469 " fill-opacity="1" fill-rule="nonzero"/></g><g clip-path="url(#f145cca822)"><path fill="#41e1f2" d="M 193.65625 459.675781 L 193.464844 459.507812 L 146.765625 512.894531 L 146.957031 513.0625 Z M 193.65625 459.675781 " fill-opacity="1" fill-rule="nonzero"/></g><g clip-path="url(#55ea9e6c52)"><path fill="#41e1f2" d="M 243.078125 627.121094 L 247.652344 559.085938 L 271.585938 516.90625 L 271.476562 516.84375 L 224.972656 490.972656 L 194.851562 461.167969 L 139.582031 412.753906 L 139.574219 412.75 L 94.894531 383.589844 L 104.472656 331.273438 L 104.4375 331.226562 L 51.152344 260.546875 L 52.320312 220.023438 L 11.417969 193.578125 L 2.644531 128.234375 L 2.390625 128.269531 L 11.179688 193.726562 L 11.226562 193.761719 L 52.0625 220.164062 L 50.890625 260.632812 L 50.917969 260.667969 L 104.199219 331.339844 L 94.613281 383.710938 L 94.683594 383.757812 L 139.425781 412.957031 L 194.679688 461.355469 L 224.820312 491.179688 L 224.835938 491.1875 L 271.238281 517.003906 L 247.578125 558.699219 L 239.660156 524.757812 L 218.757812 525.652344 L 220.585938 511.796875 L 220.441406 511.796875 L 145.222656 511.980469 L 190.523438 527.113281 L 190.546875 527.113281 L 218.460938 525.917969 L 216.480469 540.917969 L 216.554688 540.960938 L 247.398438 559.117188 L 242.824219 627.105469 Z M 239.460938 525.019531 L 247.335938 558.789062 L 216.753906 540.78125 L 218.722656 525.90625 Z M 218.496094 525.660156 L 190.558594 526.855469 L 146.777344 512.230469 L 220.292969 512.050781 Z M 218.496094 525.660156 " fill-opacity="1" fill-rule="nonzero"/></g><g clip-path="url(#471c2428ba)"><path fill="#41e1f2" d="M 217.222656 542.632812 L 217.351562 542.414062 L 190.632812 526.886719 L 172.59375 497.113281 L 166.09375 449.539062 L 166.023438 449.511719 L 141.566406 439.851562 L 9.203125 405.675781 L 73.695312 326.089844 L 73.617188 326.011719 L 19.839844 268.046875 L 2.34375 224.765625 L 11.445312 193.601562 L 11.371094 193.550781 L -34.378906 161.179688 L -34.523438 161.386719 L 11.148438 193.703125 L 2.074219 224.777344 L 2.089844 224.820312 L 19.621094 268.183594 L 19.636719 268.203125 L 73.355469 326.101562 L 8.753906 405.820312 L 8.945312 405.871094 L 141.488281 440.097656 L 165.859375 449.722656 L 172.347656 497.199219 L 172.363281 497.222656 L 190.449219 527.078125 L 190.476562 527.09375 Z M 217.222656 542.632812 " fill-opacity="1" fill-rule="nonzero"/></g><path fill="#41e1f2" d="M 34.066406 340.203125 L 73.6875 326.175781 L 73.644531 326.054688 L 51.128906 260.511719 L 51.097656 260.488281 L 16.703125 235.074219 L 11.421875 193.636719 L 11.171875 193.667969 L 16.464844 235.214844 L 16.507812 235.25 L 50.914062 260.667969 L 73.363281 326.019531 L 34.199219 339.886719 L -7.515625 250.527344 L -5.617188 198.003906 L -5.871094 197.992188 L -7.773438 250.578125 L -7.757812 250.605469 Z M 34.066406 340.203125 " fill-opacity="1" fill-rule="nonzero"/><path fill="#41e1f2" d="M 75.394531 327.773438 L 75.152344 327.699219 L 34.320312 463.222656 L 34.5625 463.296875 Z M 75.394531 327.773438 " fill-opacity="1" fill-rule="nonzero"/><g clip-path="url(#9ea2ee8ed4)"><path fill="#41e1f2" d="M 184.867188 503.007812 L 184.933594 502.988281 L 225.53125 491.242188 L 225.507812 491.160156 L 184.980469 502.886719 L 193.917969 459.519531 L 193.882812 459.507812 L 141.9375 439.667969 L 140.113281 413.304688 L 119.066406 398.253906 L 119.015625 398.320312 L 140.03125 413.351562 L 141.859375 439.730469 L 141.882812 439.738281 L 193.820312 459.574219 Z M 184.867188 503.007812 " fill-opacity="1" fill-rule="nonzero"/></g><g clip-path="url(#ee2856e64a)"><path fill="#41e1f2" d="M 266.871094 609.796875 L 266.953125 609.769531 L 239.992188 525.402344 L 239.96875 525.398438 L 95.007812 495.199219 L 173.175781 497.144531 L 172.789062 497.050781 L 33.167969 463.417969 L 33.476562 463.582031 L 94.523438 495.183594 L 94.527344 495.183594 L 239.925781 525.476562 Z M 33.828125 463.664062 L 172.378906 497.039062 L 94.546875 495.101562 Z M 33.828125 463.664062 " fill-opacity="1" fill-rule="nonzero"/></g><path fill="#41e1f2" d="M 33.503906 463.664062 L 33.535156 463.554688 L 53.886719 394.339844 L 94.683594 384.378906 L 94.664062 384.292969 L 53.917969 394.246094 L 73.851562 326.441406 L 73.777344 326.464844 L 33.519531 339.621094 L 19.242188 267.402344 L 19.226562 267.390625 L -7.589844 250.535156 L 1.972656 224.960938 L 1.96875 224.949219 L -6.15625 197.890625 L -26.625 140.320312 L -26.703125 140.347656 L -6.238281 197.917969 L 1.882812 224.960938 L -7.695312 250.570312 L -7.667969 250.589844 L 19.164062 267.457031 L 33.453125 339.730469 L 33.496094 339.71875 L 73.726562 326.570312 L 53.820312 394.269531 L 8.105469 405.429688 L 8.125 405.476562 Z M 53.792969 394.363281 L 33.488281 463.417969 L 8.222656 405.492188 Z M 53.792969 394.363281 " fill-opacity="1" fill-rule="nonzero"/><path fill="#41e1f2" d="M 140.09375 335.320312 L 86.519531 286.648438 L 86.460938 286.710938 L 140.039062 335.382812 Z M 140.09375 335.320312 " fill-opacity="1" fill-rule="nonzero"/><path fill="#41e1f2" d="M 86.148438 287.347656 L 86.222656 287.3125 L 52.3125 219.976562 L 30.667969 215.113281 L 11.972656 193.777344 L 11.910156 193.832031 L 30.621094 215.191406 L 30.636719 215.195312 L 52.253906 220.046875 Z M 86.148438 287.347656 " fill-opacity="1" fill-rule="nonzero"/><path fill="#41e1f2" d="M 19.164062 267.480469 L 19.210938 267.46875 L 51.292969 261.050781 L 51.277344 260.96875 L 19.238281 267.378906 L 16.492188 234.992188 L 1.949219 224.925781 L 1.902344 224.996094 L 16.410156 235.039062 Z M 19.164062 267.480469 " fill-opacity="1" fill-rule="nonzero"/><path fill="#41e1f2" d="M 33.445312 339.695312 L 33.523438 339.660156 L -7.601562 250.542969 L -6.152344 197.878906 L -6.175781 197.867188 L -55.15625 174.335938 L -55.191406 174.410156 L -6.238281 197.929688 L -7.6875 250.5625 L -7.683594 250.570312 Z M 33.445312 339.695312 " fill-opacity="1" fill-rule="nonzero"/><g clip-path="url(#ad957ac5fd)"><path fill="#41e1f2" d="M 146.820312 512.980469 L 146.886719 512.761719 L 166.011719 450.390625 L 165.949219 450.394531 L 142.820312 452.683594 L 141.9375 439.648438 L 141.890625 439.660156 L 33.675781 463.460938 L 119.085938 398.308594 L 119.085938 398.289062 L 119.289062 366.257812 L 119.203125 366.257812 L 119 398.269531 L 33.320312 463.625 L 33.507812 463.585938 L 142.746094 452.777344 L 146.824219 512.980469 Z M 165.894531 450.488281 L 146.875 512.515625 L 142.828125 452.769531 Z M 142.734375 452.691406 L 34.207031 463.429688 L 141.859375 439.75 Z M 142.734375 452.691406 " fill-opacity="1" fill-rule="nonzero"/></g><path fill="#41e1f2" d="M 8.113281 405.554688 L 8.191406 405.496094 L 104.878906 331.207031 L 104.824219 331.140625 L 8.214844 405.371094 L 19.246094 267.429688 L 19.160156 267.425781 Z M 8.113281 405.554688 " fill-opacity="1" fill-rule="nonzero"/><path fill="#41e1f2" d="M 141.863281 439.71875 L 141.9375 439.679688 L 51.402344 261.148438 L 86.488281 286.746094 L 86.511719 286.722656 L 106.003906 270.578125 L 105.949219 270.511719 L 86.484375 286.640625 L 51.308594 260.976562 L -25.8125 167.621094 L -25.878906 167.675781 L 51.234375 261.023438 L 8.105469 405.511719 L 8.164062 405.507812 L 119.011719 398.335938 L 141.859375 439.722656 Z M 51.296875 261.121094 L 140.765625 437.558594 L 119.066406 398.242188 L 119.039062 398.242188 L 8.222656 405.414062 Z M 51.296875 261.121094 " fill-opacity="1" fill-rule="nonzero"/><g clip-path="url(#4fe6770952)"><path fill="#41e1f2" d="M 234.683594 534.5 L 122.109375 448.488281 L 122.058594 448.558594 L 234.628906 534.570312 Z M 234.683594 534.5 " fill-opacity="1" fill-rule="nonzero"/></g><path fill="#41e1f2" d="M 195.222656 460.070312 L 195.304688 460.1875 C 195.949219 461.082031 195.460938 462.460938 194.574219 462.976562 C 193.542969 463.582031 192.429688 463.140625 191.78125 462.246094 L 191.699219 462.128906 C 191.054688 461.234375 191.546875 459.855469 192.433594 459.339844 C 193.460938 458.734375 194.574219 459.175781 195.222656 460.070312 L 195.304688 460.1875 L 191.785156 462.246094 L 191.703125 462.128906 C 191.054688 461.234375 191.546875 459.855469 192.433594 459.339844 C 193.460938 458.734375 194.574219 459.175781 195.222656 460.070312 Z M 195.222656 460.070312 " fill-opacity="1" fill-rule="nonzero"/><path fill="#41e1f2" d="M 139.453125 415.523438 C 136.609375 415.523438 136.605469 411.101562 139.453125 411.101562 C 142.296875 411.101562 142.296875 415.523438 139.453125 415.523438 Z M 139.453125 415.523438 " fill-opacity="1" fill-rule="nonzero"/><path fill="#41e1f2" d="M 143.929688 439.308594 L 144.128906 439.585938 C 144.300781 439.859375 144.398438 440.152344 144.410156 440.46875 C 144.480469 440.785156 144.464844 441.101562 144.367188 441.417969 C 144.296875 441.726562 144.152344 442 143.941406 442.226562 C 143.773438 442.488281 143.550781 442.691406 143.273438 442.84375 L 142.707031 443.082031 C 142.285156 443.195312 141.863281 443.195312 141.441406 443.082031 L 140.875 442.84375 C 140.519531 442.632812 140.234375 442.34375 140.023438 441.988281 L 139.824219 441.714844 C 139.648438 441.4375 139.554688 441.144531 139.542969 440.828125 C 139.46875 440.511719 139.484375 440.195312 139.582031 439.878906 C 139.65625 439.570312 139.800781 439.296875 140.011719 439.070312 C 140.179688 438.8125 140.402344 438.605469 140.679688 438.457031 L 141.246094 438.214844 C 141.667969 438.101562 142.089844 438.101562 142.507812 438.214844 L 143.078125 438.457031 C 143.433594 438.667969 143.71875 438.953125 143.929688 439.308594 Z M 143.929688 439.308594 " fill-opacity="1" fill-rule="nonzero"/><path fill="#41e1f2" d="M 36.648438 461.984375 C 36.675781 462.023438 36.703125 462.058594 36.730469 462.09375 L 36.328125 461.578125 C 36.355469 461.609375 36.378906 461.640625 36.414062 461.667969 L 35.894531 461.269531 C 35.894531 461.269531 35.910156 461.277344 35.917969 461.28125 L 35.308594 461.023438 C 35.320312 461.027344 35.328125 461.03125 35.339844 461.03125 L 34.664062 460.941406 C 34.664062 460.941406 34.679688 460.941406 34.683594 460.941406 L 34.007812 461.03125 C 34.019531 461.027344 34.03125 461.023438 34.042969 461.019531 L 33.433594 461.277344 C 33.496094 461.25 33.554688 461.203125 33.609375 461.164062 C 33.902344 460.976562 34.21875 460.875 34.558594 460.863281 C 34.894531 460.785156 35.234375 460.800781 35.574219 460.90625 C 35.90625 460.984375 36.195312 461.140625 36.441406 461.363281 C 36.71875 461.542969 36.9375 461.78125 37.09375 462.078125 L 37.351562 462.6875 C 37.472656 463.140625 37.472656 463.59375 37.351562 464.042969 L 37.09375 464.652344 C 36.871094 465.035156 36.5625 465.339844 36.183594 465.566406 C 36.128906 465.605469 36.074219 465.648438 36.011719 465.679688 C 35.925781 465.722656 35.472656 465.917969 35.382812 465.945312 C 35.375 465.945312 35.367188 465.945312 35.359375 465.949219 C 35.289062 465.972656 34.734375 466.042969 34.664062 466.042969 C 34.597656 466.042969 34.03125 465.964844 33.972656 465.949219 C 33.746094 465.898438 33.519531 465.800781 33.324219 465.675781 C 33.242188 465.621094 32.867188 465.332031 32.792969 465.261719 C 32.789062 465.257812 32.777344 465.25 32.773438 465.242188 C 32.570312 465.039062 32.410156 464.789062 32.242188 464.558594 C 32.058594 464.265625 31.957031 463.949219 31.941406 463.609375 C 31.863281 463.269531 31.878906 462.929688 31.988281 462.59375 C 32.066406 462.261719 32.21875 461.972656 32.441406 461.726562 C 32.621094 461.449219 32.859375 461.230469 33.15625 461.070312 L 33.765625 460.8125 C 34.21875 460.691406 34.667969 460.691406 35.121094 460.8125 L 35.730469 461.070312 C 36.113281 461.296875 36.417969 461.601562 36.644531 461.984375 Z M 36.648438 461.984375 " fill-opacity="1" fill-rule="nonzero"/><path fill="#41e1f2" d="M 6.503906 403.84375 L 6.753906 403.660156 C 7.019531 403.492188 7.300781 403.402344 7.609375 403.390625 C 7.910156 403.320312 8.21875 403.335938 8.523438 403.429688 C 8.820312 403.5 9.082031 403.636719 9.300781 403.839844 C 9.550781 404.003906 9.75 404.21875 9.894531 404.484375 L 10.125 405.03125 C 10.234375 405.4375 10.234375 405.847656 10.125 406.253906 L 9.894531 406.800781 C 9.6875 407.148438 9.414062 407.421875 9.070312 407.625 L 8.820312 407.804688 C 8.554688 407.972656 8.273438 408.066406 7.964844 408.078125 C 7.664062 408.144531 7.355469 408.132812 7.050781 408.039062 C 6.753906 407.964844 6.492188 407.828125 6.273438 407.625 C 6.023438 407.464844 5.824219 407.25 5.679688 406.980469 L 5.449219 406.433594 C 5.339844 406.027344 5.339844 405.621094 5.449219 405.214844 L 5.679688 404.664062 C 5.886719 404.320312 6.160156 404.046875 6.503906 403.84375 Z M 6.503906 403.84375 " fill-opacity="1" fill-rule="nonzero"/><path fill="#41e1f2" d="M 73.589844 328.441406 C 70.746094 328.441406 70.742188 324.023438 73.589844 324.023438 C 76.4375 324.023438 76.4375 328.441406 73.589844 328.441406 Z M 73.589844 328.441406 " fill-opacity="1" fill-rule="nonzero"/><path fill="#41e1f2" d="M 51.484375 263.324219 C 48.859375 263.324219 48.855469 259.246094 51.484375 259.246094 C 54.113281 259.246094 54.113281 263.324219 51.484375 263.324219 Z M 51.484375 263.324219 " fill-opacity="1" fill-rule="nonzero"/><path fill="#41e1f2" d="M 19.851562 270.007812 C 17.007812 270.007812 17.003906 265.589844 19.851562 265.589844 C 22.699219 265.589844 22.699219 270.007812 19.851562 270.007812 Z M 19.851562 270.007812 " fill-opacity="1" fill-rule="nonzero"/><path fill="#41e1f2" d="M 104.933594 334.085938 C 102.417969 334.085938 102.414062 330.175781 104.933594 330.175781 C 107.449219 330.175781 107.449219 334.085938 104.933594 334.085938 Z M 104.933594 334.085938 " fill-opacity="1" fill-rule="nonzero"/><path fill="#41e1f2" d="M 95.0625 385.386719 C 92.765625 385.386719 92.761719 381.816406 95.0625 381.816406 C 97.359375 381.816406 97.359375 385.386719 95.0625 385.386719 Z M 95.0625 385.386719 " fill-opacity="1" fill-rule="nonzero"/><path fill="#41e1f2" d="M 120.34375 368.84375 C 117.609375 368.84375 117.605469 364.59375 120.34375 364.59375 C 123.078125 364.59375 123.078125 368.84375 120.34375 368.84375 Z M 120.34375 368.84375 " fill-opacity="1" fill-rule="nonzero"/><path fill="#41e1f2" d="M 168.855469 449.882812 L 169.109375 450.234375 C 169.28125 450.507812 169.378906 450.800781 169.390625 451.117188 C 169.460938 451.433594 169.449219 451.75 169.347656 452.066406 C 169.277344 452.378906 169.132812 452.648438 168.921875 452.878906 C 168.753906 453.136719 168.53125 453.339844 168.253906 453.492188 L 167.6875 453.730469 C 167.265625 453.84375 166.84375 453.84375 166.421875 453.730469 L 165.855469 453.492188 C 165.5 453.28125 165.214844 452.996094 165.003906 452.636719 L 164.945312 452.5625 C 164.773438 452.285156 164.679688 451.992188 164.664062 451.675781 C 164.59375 451.359375 164.609375 451.042969 164.707031 450.726562 C 164.78125 450.417969 164.921875 450.144531 165.132812 449.917969 C 165.300781 449.660156 165.523438 449.453125 165.800781 449.304688 L 166.367188 449.0625 C 166.789062 448.949219 167.210938 448.949219 167.632812 449.0625 L 168.199219 449.304688 C 168.558594 449.515625 168.84375 449.800781 169.054688 450.15625 L 169.109375 450.234375 L 165 452.636719 L 164.746094 452.285156 C 164.574219 452.011719 164.476562 451.714844 164.464844 451.398438 C 164.394531 451.082031 164.410156 450.765625 164.507812 450.449219 C 164.578125 450.140625 164.722656 449.871094 164.933594 449.640625 C 165.101562 449.382812 165.324219 449.175781 165.601562 449.027344 L 166.167969 448.785156 C 166.589844 448.671875 167.011719 448.671875 167.433594 448.785156 L 168 449.027344 C 168.355469 449.238281 168.640625 449.523438 168.851562 449.878906 Z M 168.855469 449.882812 " fill-opacity="1" fill-rule="nonzero"/><path fill="#41e1f2" d="M 227.125 490.722656 L 227.324219 490.996094 C 227.484375 491.25 227.570312 491.523438 227.582031 491.820312 C 227.648438 492.113281 227.636719 492.40625 227.542969 492.699219 C 227.476562 492.988281 227.34375 493.238281 227.148438 493.449219 C 226.992188 493.691406 226.789062 493.882812 226.527344 494.019531 L 226 494.242188 C 225.609375 494.347656 225.21875 494.347656 224.828125 494.242188 L 224.296875 494.019531 C 223.96875 493.824219 223.703125 493.558594 223.507812 493.226562 L 223.308594 492.953125 C 223.144531 492.699219 223.058594 492.425781 223.046875 492.132812 C 222.980469 491.835938 222.992188 491.542969 223.085938 491.25 C 223.152344 490.964844 223.285156 490.710938 223.480469 490.5 C 223.636719 490.257812 223.84375 490.070312 224.101562 489.929688 L 224.628906 489.707031 C 225.019531 489.601562 225.414062 489.601562 225.804688 489.707031 L 226.332031 489.929688 C 226.664062 490.125 226.929688 490.390625 227.125 490.722656 Z M 227.125 490.722656 " fill-opacity="1" fill-rule="nonzero"/><path fill="#41e1f2" d="M 94.335938 496.570312 C 92.152344 496.570312 92.148438 493.167969 94.335938 493.167969 C 96.527344 493.167969 96.527344 496.570312 94.335938 496.570312 Z M 94.335938 496.570312 " fill-opacity="1" fill-rule="nonzero"/><g clip-path="url(#74cd078f46)"><path fill="#41e1f2" d="M 173.175781 499.257812 C 171.097656 499.257812 171.09375 496.027344 173.175781 496.027344 C 175.257812 496.027344 175.257812 499.257812 173.175781 499.257812 Z M 173.175781 499.257812 " fill-opacity="1" fill-rule="nonzero"/></g><path fill="#41e1f2" d="M 120.558594 397.792969 L 120.757812 398.066406 C 120.871094 398.242188 120.929688 398.433594 120.941406 398.636719 C 120.984375 398.839844 120.976562 399.042969 120.914062 399.246094 C 120.867188 399.445312 120.773438 399.621094 120.640625 399.765625 C 120.53125 399.933594 120.386719 400.066406 120.210938 400.160156 L 119.84375 400.316406 C 119.574219 400.390625 119.300781 400.390625 119.03125 400.316406 L 118.664062 400.160156 C 118.4375 400.027344 118.253906 399.84375 118.117188 399.613281 L 117.917969 399.335938 C 117.804688 399.160156 117.746094 398.972656 117.734375 398.765625 C 117.691406 398.5625 117.699219 398.359375 117.761719 398.15625 C 117.8125 397.957031 117.902344 397.785156 118.035156 397.636719 C 118.144531 397.46875 118.289062 397.339844 118.464844 397.242188 L 118.832031 397.085938 C 119.105469 397.015625 119.375 397.015625 119.644531 397.085938 L 120.011719 397.242188 C 120.238281 397.378906 120.421875 397.5625 120.558594 397.792969 Z M 120.558594 397.792969 " fill-opacity="1" fill-rule="nonzero"/><path fill="#41e1f2" d="M 85.820312 286.027344 L 86.070312 285.847656 C 86.257812 285.730469 86.457031 285.664062 86.671875 285.65625 C 86.886719 285.609375 87.101562 285.617188 87.316406 285.683594 C 87.527344 285.734375 87.707031 285.832031 87.863281 285.972656 C 88.039062 286.085938 88.179688 286.238281 88.28125 286.425781 L 88.445312 286.8125 C 88.519531 287.097656 88.519531 287.386719 88.445312 287.671875 L 88.28125 288.058594 C 88.136719 288.300781 87.945312 288.492188 87.699219 288.636719 L 87.449219 288.820312 C 87.265625 288.9375 87.0625 289 86.851562 289.011719 C 86.636719 289.058594 86.421875 289.050781 86.207031 288.984375 C 85.996094 288.933594 85.8125 288.835938 85.65625 288.695312 C 85.480469 288.578125 85.34375 288.429688 85.242188 288.238281 L 85.078125 287.855469 C 85 287.566406 85 287.28125 85.078125 286.996094 L 85.242188 286.609375 C 85.382812 286.367188 85.578125 286.171875 85.820312 286.027344 Z M 85.820312 286.027344 " fill-opacity="1" fill-rule="nonzero"/><path fill="#41e1f2" d="M 47.578125 315.230469 C 45.5 315.230469 45.496094 312 47.578125 312 C 49.660156 312 49.660156 315.230469 47.578125 315.230469 Z M 47.578125 315.230469 " fill-opacity="1" fill-rule="nonzero"/><path fill="#41e1f2" d="M 34.113281 338.394531 L 34.5625 338.488281 C 34.773438 338.535156 34.957031 338.632812 35.113281 338.777344 C 35.285156 338.890625 35.425781 339.042969 35.527344 339.230469 C 35.644531 339.417969 35.710938 339.617188 35.71875 339.832031 C 35.765625 340.046875 35.757812 340.261719 35.691406 340.476562 C 35.566406 340.867188 35.320312 341.242188 34.949219 341.441406 L 34.5625 341.605469 C 34.277344 341.679688 33.988281 341.679688 33.703125 341.605469 L 33.253906 341.511719 C 33.042969 341.460938 32.863281 341.363281 32.707031 341.222656 C 32.53125 341.109375 32.390625 340.957031 32.289062 340.769531 C 32.171875 340.582031 32.109375 340.382812 32.097656 340.167969 C 32.050781 339.953125 32.058594 339.738281 32.125 339.523438 C 32.253906 339.132812 32.496094 338.753906 32.867188 338.558594 L 33.253906 338.394531 C 33.539062 338.316406 33.828125 338.316406 34.113281 338.394531 Z M 34.113281 338.394531 " fill-opacity="1" fill-rule="nonzero"/><path fill="#41e1f2" d="M 3.667969 224.335938 L 3.863281 224.613281 C 3.996094 224.816406 4.066406 225.039062 4.078125 225.273438 C 4.128906 225.511719 4.121094 225.75 4.046875 225.988281 C 3.992188 226.21875 3.882812 226.421875 3.726562 226.59375 C 3.601562 226.789062 3.433594 226.941406 3.226562 227.054688 L 2.796875 227.234375 C 2.480469 227.320312 2.167969 227.320312 1.851562 227.234375 L 1.421875 227.054688 C 1.15625 226.894531 0.941406 226.679688 0.785156 226.414062 L 0.585938 226.136719 C 0.453125 225.929688 0.382812 225.710938 0.371094 225.472656 C 0.320312 225.234375 0.328125 225 0.40625 224.761719 C 0.457031 224.527344 0.566406 224.324219 0.722656 224.15625 C 0.847656 223.960938 1.015625 223.808594 1.226562 223.695312 L 1.652344 223.515625 C 1.96875 223.429688 2.285156 223.429688 2.597656 223.515625 L 3.027344 223.695312 C 3.292969 223.851562 3.507812 224.066406 3.667969 224.335938 Z M 3.667969 224.335938 " fill-opacity="1" fill-rule="nonzero"/><path fill="#41e1f2" d="M 30.140625 217.46875 C 27.628906 217.46875 27.625 213.558594 30.140625 213.558594 C 32.660156 213.558594 32.660156 217.46875 30.140625 217.46875 Z M 30.140625 217.46875 " fill-opacity="1" fill-rule="nonzero"/><path fill="#41e1f2" d="M 5.828125 154.453125 C 3.316406 154.453125 3.3125 150.542969 5.828125 150.542969 C 8.347656 150.542969 8.347656 154.453125 5.828125 154.453125 Z M 5.828125 154.453125 " fill-opacity="1" fill-rule="nonzero"/><path fill="#41e1f2" d="M 51.769531 219.550781 L 52.023438 219.371094 C 52.21875 219.246094 52.429688 219.179688 52.652344 219.167969 C 52.878906 219.117188 53.105469 219.125 53.332031 219.199219 C 53.554688 219.25 53.746094 219.351562 53.910156 219.503906 C 54.09375 219.625 54.242188 219.78125 54.347656 219.980469 L 54.519531 220.386719 C 54.601562 220.6875 54.601562 220.988281 54.519531 221.292969 L 54.347656 221.699219 C 54.195312 221.953125 53.996094 222.15625 53.738281 222.308594 L 53.488281 222.488281 C 53.292969 222.613281 53.082031 222.683594 52.855469 222.691406 C 52.628906 222.742188 52.402344 222.734375 52.175781 222.660156 C 51.957031 222.609375 51.765625 222.507812 51.597656 222.355469 C 51.414062 222.238281 51.269531 222.078125 51.160156 221.878906 L 50.988281 221.472656 C 50.90625 221.171875 50.90625 220.871094 50.988281 220.570312 L 51.160156 220.164062 C 51.3125 219.90625 51.515625 219.703125 51.769531 219.550781 Z M 51.769531 219.550781 " fill-opacity="1" fill-rule="nonzero"/><path fill="#41e1f2" d="M 51.507812 261.265625 L 11.195312 193.507812 L 11.160156 193.527344 L 51.472656 261.289062 Z M 51.507812 261.265625 " fill-opacity="1" fill-rule="nonzero"/><path fill="#41e1f2" d="M 11.636719 196.144531 C 9.449219 196.144531 9.449219 192.742188 11.636719 192.742188 C 13.828125 192.742188 13.828125 196.144531 11.636719 196.144531 Z M 11.636719 196.144531 " fill-opacity="1" fill-rule="nonzero"/><path fill="#41e1f2" d="M 105.875 273.15625 C 103.6875 273.15625 103.683594 269.757812 105.875 269.757812 C 108.0625 269.757812 108.0625 273.15625 105.875 273.15625 Z M 105.875 273.15625 " fill-opacity="1" fill-rule="nonzero"/><path fill="#41e1f2" d="M 141.113281 334.351562 L 141.3125 334.625 C 141.417969 334.792969 141.476562 334.972656 141.484375 335.164062 C 141.527344 335.355469 141.519531 335.546875 141.460938 335.738281 C 141.414062 335.929688 141.328125 336.09375 141.203125 336.230469 C 141.097656 336.390625 140.964844 336.515625 140.796875 336.605469 L 140.453125 336.75 C 140.195312 336.816406 139.941406 336.816406 139.683594 336.75 L 139.339844 336.605469 C 139.121094 336.472656 138.949219 336.304688 138.820312 336.085938 L 138.621094 335.808594 C 138.515625 335.644531 138.460938 335.464844 138.449219 335.273438 C 138.410156 335.082031 138.417969 334.886719 138.476562 334.695312 C 138.519531 334.507812 138.605469 334.34375 138.734375 334.203125 C 138.835938 334.046875 138.96875 333.921875 139.140625 333.832031 L 139.484375 333.6875 C 139.742188 333.617188 139.996094 333.617188 140.25 333.6875 L 140.597656 333.832031 C 140.8125 333.960938 140.984375 334.132812 141.113281 334.351562 Z M 141.113281 334.351562 " fill-opacity="1" fill-rule="nonzero"/><path fill="#41e1f2" d="M 142.46875 454.351562 C 140.71875 454.351562 140.71875 451.628906 142.46875 451.628906 C 144.21875 451.628906 144.21875 454.351562 142.46875 454.351562 Z M 142.46875 454.351562 " fill-opacity="1" fill-rule="nonzero"/><path fill="#41e1f2" d="M 160.660156 489.757812 L 160.890625 489.589844 C 161.027344 489.503906 161.175781 489.453125 161.332031 489.449219 C 161.492188 489.414062 161.648438 489.417969 161.808594 489.46875 C 161.960938 489.507812 162.097656 489.578125 162.210938 489.683594 C 162.339844 489.765625 162.441406 489.878906 162.515625 490.015625 L 162.636719 490.300781 C 162.695312 490.511719 162.695312 490.722656 162.636719 490.933594 L 162.515625 491.214844 C 162.414062 491.394531 162.269531 491.539062 162.089844 491.644531 L 161.859375 491.8125 C 161.722656 491.898438 161.574219 491.945312 161.417969 491.953125 C 161.257812 491.988281 161.101562 491.980469 160.941406 491.929688 C 160.789062 491.894531 160.652344 491.824219 160.539062 491.71875 C 160.410156 491.636719 160.308594 491.523438 160.234375 491.386719 L 160.113281 491.101562 C 160.054688 490.890625 160.054688 490.679688 160.113281 490.46875 L 160.234375 490.183594 C 160.335938 490.007812 160.480469 489.863281 160.660156 489.757812 Z M 160.660156 489.757812 " fill-opacity="1" fill-rule="nonzero"/><path fill="#41e1f2" d="M 143.523438 482.546875 C 141.445312 482.546875 141.441406 479.316406 143.523438 479.316406 C 145.601562 479.316406 145.601562 482.546875 143.523438 482.546875 Z M 143.523438 482.546875 " fill-opacity="1" fill-rule="nonzero"/><path fill="#41e1f2" d="M 91.53125 412.046875 L 91.761719 411.878906 C 91.976562 411.742188 92.210938 411.667969 92.457031 411.65625 C 92.707031 411.601562 92.953125 411.613281 93.203125 411.691406 C 93.445312 411.75 93.660156 411.859375 93.839844 412.027344 C 94.042969 412.160156 94.203125 412.332031 94.320312 412.550781 L 94.507812 413 C 94.597656 413.332031 94.597656 413.660156 94.507812 413.992188 L 94.320312 414.441406 C 94.152344 414.722656 93.929688 414.945312 93.648438 415.113281 L 93.417969 415.28125 C 93.203125 415.417969 92.96875 415.492188 92.722656 415.503906 C 92.472656 415.558594 92.226562 415.546875 91.976562 415.46875 C 91.734375 415.410156 91.519531 415.300781 91.339844 415.132812 C 91.136719 415 90.976562 414.828125 90.859375 414.609375 L 90.671875 414.160156 C 90.582031 413.832031 90.582031 413.5 90.671875 413.167969 L 90.859375 412.71875 C 91.027344 412.4375 91.25 412.214844 91.53125 412.046875 Z M 91.53125 412.046875 " fill-opacity="1" fill-rule="nonzero"/><path fill="#41e1f2" d="M 111.246094 425.007812 C 109.277344 425.007812 109.273438 421.949219 111.246094 421.949219 C 113.214844 421.949219 113.214844 425.007812 111.246094 425.007812 Z M 111.246094 425.007812 " fill-opacity="1" fill-rule="nonzero"/><path fill="#41e1f2" d="M 202.347656 450.652344 L 202.179688 450.417969 C 202.09375 450.28125 202.046875 450.132812 202.039062 449.976562 C 202.003906 449.816406 202.011719 449.660156 202.0625 449.503906 C 202.097656 449.347656 202.167969 449.214844 202.273438 449.097656 C 202.355469 448.96875 202.46875 448.867188 202.605469 448.792969 L 202.890625 448.671875 C 203.101562 448.613281 203.3125 448.613281 203.523438 448.671875 L 203.804688 448.792969 C 203.984375 448.898438 204.128906 449.039062 204.234375 449.21875 L 204.402344 449.449219 C 204.488281 449.585938 204.535156 449.734375 204.542969 449.894531 C 204.578125 450.050781 204.570312 450.210938 204.519531 450.367188 C 204.480469 450.523438 204.414062 450.65625 204.308594 450.773438 C 204.222656 450.902344 204.113281 451.003906 203.972656 451.078125 L 203.691406 451.199219 C 203.480469 451.253906 203.269531 451.253906 203.058594 451.199219 L 202.773438 451.078125 C 202.597656 450.972656 202.453125 450.828125 202.347656 450.652344 Z M 202.347656 450.652344 " fill-opacity="1" fill-rule="nonzero"/><path fill="#41e1f2" d="M 86.675781 385.90625 C 84.925781 385.90625 84.921875 383.183594 86.675781 383.183594 C 88.425781 383.183594 88.425781 385.90625 86.675781 385.90625 Z M 86.675781 385.90625 " fill-opacity="1" fill-rule="nonzero"/><path fill="#41e1f2" d="M 13.820312 217.640625 C 12.289062 217.640625 12.289062 215.261719 13.820312 215.261719 C 15.351562 215.261719 15.351562 217.640625 13.820312 217.640625 Z M 13.820312 217.640625 " fill-opacity="1" fill-rule="nonzero"/><path fill="#41e1f2" d="M 16.761719 236.59375 C 15.011719 236.59375 15.007812 233.875 16.761719 233.875 C 18.511719 233.875 18.511719 236.59375 16.761719 236.59375 Z M 16.761719 236.59375 " fill-opacity="1" fill-rule="nonzero"/><path fill="#41e1f2" d="M 21.972656 201.46875 C 20.441406 201.46875 20.441406 199.089844 21.972656 199.089844 C 23.503906 199.089844 23.503906 201.46875 21.972656 201.46875 Z M 21.972656 201.46875 " fill-opacity="1" fill-rule="nonzero"/><path fill="#41e1f2" d="M 92.546875 343.199219 C 90.578125 343.199219 90.574219 340.140625 92.546875 340.140625 C 94.515625 340.140625 94.515625 343.199219 92.546875 343.199219 Z M 92.546875 343.199219 " fill-opacity="1" fill-rule="nonzero"/><path fill="#41e1f2" d="M 99.632812 357.582031 C 98.101562 357.582031 98.101562 355.203125 99.632812 355.203125 C 101.164062 355.203125 101.164062 357.582031 99.632812 357.582031 Z M 99.632812 357.582031 " fill-opacity="1" fill-rule="nonzero"/><path fill="#41e1f2" d="M 188.800781 477.003906 C 186.832031 477.003906 186.832031 473.945312 188.800781 473.945312 C 190.773438 473.945312 190.773438 477.003906 188.800781 477.003906 Z M 188.800781 477.003906 " fill-opacity="1" fill-rule="nonzero"/><path fill="#41e1f2" d="M 48.003906 300.296875 C 46.472656 300.296875 46.472656 297.917969 48.003906 297.917969 C 49.535156 297.917969 49.535156 300.296875 48.003906 300.296875 Z M 48.003906 300.296875 " fill-opacity="1" fill-rule="nonzero"/></svg>