<svg xmlns="http://www.w3.org/2000/svg" xmlns:xlink="http://www.w3.org/1999/xlink" width="375" zoomAndPan="magnify" viewBox="0 0 281.25 500.249987" height="667" preserveAspectRatio="xMidYMid meet" version="1.0"><defs><clipPath id="532b549b07"><path d="M 0 0.292969 L 280.503906 0.292969 L 280.503906 499.210938 L 0 499.210938 Z M 0 0.292969 " clip-rule="nonzero"/></clipPath><clipPath id="b7a380707b"><path d="M 139 10 L 280.503906 10 L 280.503906 111 L 139 111 Z M 139 10 " clip-rule="nonzero"/></clipPath><clipPath id="0a61d5d215"><path d="M 0 0.292969 L 280.503906 0.292969 L 280.503906 376 L 0 376 Z M 0 0.292969 " clip-rule="nonzero"/></clipPath><clipPath id="efbecbc5ac"><path d="M 16 0.292969 L 93 0.292969 L 93 18 L 16 18 Z M 16 0.292969 " clip-rule="nonzero"/></clipPath><clipPath id="6f7720e234"><path d="M 119 0.292969 L 167 0.292969 L 167 50 L 119 50 Z M 119 0.292969 " clip-rule="nonzero"/></clipPath><clipPath id="63320a610b"><path d="M 41 0.292969 L 280.503906 0.292969 L 280.503906 380.53125 L 41 380.53125 Z M 41 0.292969 " clip-rule="nonzero"/></clipPath><clipPath id="2522eda90b"><path d="M 95 0.292969 L 280.503906 0.292969 L 280.503906 348 L 95 348 Z M 95 0.292969 " clip-rule="nonzero"/></clipPath><clipPath id="c46a039dfc"><path d="M 239 168 L 280.503906 168 L 280.503906 316 L 239 316 Z M 239 168 " clip-rule="nonzero"/></clipPath><clipPath id="09c8be5c04"><path d="M 46 0.292969 L 280 0.292969 L 280 46 L 46 46 Z M 46 0.292969 " clip-rule="nonzero"/></clipPath><clipPath id="52b3268e87"><path d="M 218 45 L 280.503906 45 L 280.503906 369 L 218 369 Z M 218 45 " clip-rule="nonzero"/></clipPath><clipPath id="d8bd1975ea"><path d="M 226 221 L 280.503906 221 L 280.503906 315 L 226 315 Z M 226 221 " clip-rule="nonzero"/></clipPath><clipPath id="d9521b8018"><path d="M 261 241 L 280.503906 241 L 280.503906 284 L 261 284 Z M 261 241 " clip-rule="nonzero"/></clipPath><clipPath id="ff5284ed2c"><path d="M 279 169 L 280.503906 169 L 280.503906 335 L 279 335 Z M 279 169 " clip-rule="nonzero"/></clipPath><clipPath id="5930bcdc38"><path d="M 146 0.292969 L 280 0.292969 L 280 143 L 146 143 Z M 146 0.292969 " clip-rule="nonzero"/></clipPath><clipPath id="76e14ca41a"><path d="M 208 103 L 280.503906 103 L 280.503906 242 L 208 242 Z M 208 103 " clip-rule="nonzero"/></clipPath><clipPath id="3010c03f61"><path d="M 171 69 L 280.503906 69 L 280.503906 342 L 171 342 Z M 171 69 " clip-rule="nonzero"/></clipPath><clipPath id="2c3aa9c2b0"><path d="M 78 0.292969 L 191 0.292969 L 191 61 L 78 61 Z M 78 0.292969 " clip-rule="nonzero"/></clipPath><clipPath id="a6dccfcdae"><path d="M 275 42 L 280.503906 42 L 280.503906 49 L 275 49 Z M 275 42 " clip-rule="nonzero"/></clipPath><clipPath id="2ef632bac1"><path d="M 277 167 L 280.503906 167 L 280.503906 171 L 277 171 Z M 277 167 " clip-rule="nonzero"/></clipPath><clipPath id="ae0e240ccb"><path d="M 280 291 L 280.503906 291 L 280.503906 296 L 280 296 Z M 280 291 " clip-rule="nonzero"/></clipPath><clipPath id="2b72db4660"><path d="M 261 247 L 280.503906 247 L 280.503906 316 L 261 316 Z M 261 247 " clip-rule="nonzero"/></clipPath></defs><g clip-path="url(#532b549b07)"><path fill="#ffffff" d="M 0 0.292969 L 281.25 0.292969 L 281.25 507.4375 L 0 507.4375 Z M 0 0.292969 " fill-opacity="1" fill-rule="nonzero"/><path fill="#ffffff" d="M 0 0.292969 L 280.503906 0.292969 L 280.503906 499.210938 L 0 499.210938 Z M 0 0.292969 " fill-opacity="1" fill-rule="nonzero"/><path fill="#000000" d="M 0 0.292969 L 280.503906 0.292969 L 280.503906 499.210938 L 0 499.210938 Z M 0 0.292969 " fill-opacity="1" fill-rule="nonzero"/></g><path fill="#41e1f2" d="M 170.796875 67.863281 L 170.988281 68.03125 L 218.523438 13.671875 L 218.332031 13.503906 Z M 170.796875 67.863281 " fill-opacity="1" fill-rule="nonzero"/><g clip-path="url(#b7a380707b)"><path fill="#41e1f2" d="M 139.828125 10.984375 L 139.765625 11.234375 L 279.382812 45.320312 L 305.117188 102.8125 L 193.523438 109.785156 L 193.542969 110.039062 L 305.5 103.042969 L 279.566406 45.101562 L 279.503906 45.085938 Z M 139.828125 10.984375 " fill-opacity="1" fill-rule="nonzero"/></g><path fill="#41e1f2" d="M 127.921875 5.78125 L 119.394531 47.589844 L 109.035156 58.949219 L 109.226562 59.121094 L 119.628906 47.710938 L 119.636719 47.675781 L 128.171875 5.832031 Z M 127.921875 5.78125 " fill-opacity="1" fill-rule="nonzero"/><g clip-path="url(#0a61d5d215)"><path fill="#41e1f2" d="M -23.1875 -84.988281 L -23.410156 -84.863281 C -18.183594 -75.617188 -12.222656 -74.765625 -6.457031 -73.945312 C -0.765625 -73.132812 5.117188 -72.292969 10.265625 -63.210938 C 15.453125 -54.050781 20.652344 -44.867188 25.273438 -36.703125 L 41.480469 -8.082031 L 41.539062 -8.074219 L 128.667969 5.835938 L 173.355469 95.953125 L 208.519531 177.5 L 226.824219 222.222656 L 226.835938 222.234375 L 282.273438 293.214844 L 327.195312 375.296875 L 327.417969 375.171875 L 282.484375 293.070312 L 282.476562 293.0625 L 227.042969 222.089844 L 208.753906 177.398438 L 173.582031 95.84375 L 128.832031 5.601562 L 128.769531 5.589844 L 41.636719 -8.320312 L 25.492188 -36.832031 C 20.871094 -44.992188 15.671875 -54.175781 10.488281 -63.339844 C 5.277344 -72.53125 -0.671875 -73.378906 -6.421875 -74.199219 C -12.128906 -75.011719 -18.027344 -75.851562 -23.191406 -84.988281 Z M -23.1875 -84.988281 " fill-opacity="1" fill-rule="nonzero"/></g><g clip-path="url(#efbecbc5ac)"><path fill="#41e1f2" d="M 16.445312 -65.855469 L 16.253906 -65.6875 L 88.144531 17.953125 L 92.679688 -3.246094 L 92.578125 -3.289062 L 58.238281 -17.472656 L 58.167969 -17.308594 L 16.445312 -65.851562 Z M 88.003906 17.394531 L 58.28125 -17.183594 L 92.382812 -3.09375 Z M 88.003906 17.394531 " fill-opacity="1" fill-rule="nonzero"/></g><g clip-path="url(#6f7720e234)"><path fill="#41e1f2" d="M 119.316406 49.078125 L 119.507812 49.246094 L 166.207031 -4.140625 L 166.015625 -4.308594 Z M 119.316406 49.078125 " fill-opacity="1" fill-rule="nonzero"/></g><g clip-path="url(#63320a610b)"><path fill="#41e1f2" d="M 69.894531 -118.367188 L 65.320312 -50.332031 L 41.382812 -8.152344 L 41.496094 -8.089844 L 87.996094 17.777344 L 118.117188 47.582031 L 173.390625 96 L 173.394531 96.003906 L 218.074219 125.164062 L 208.5 177.480469 L 208.53125 177.523438 L 261.820312 248.203125 L 260.652344 288.726562 L 301.554688 315.175781 L 310.328125 380.515625 L 310.578125 380.484375 L 301.792969 315.023438 L 301.742188 314.992188 L 260.910156 288.589844 L 262.078125 248.121094 L 262.050781 248.085938 L 208.769531 177.414062 L 218.359375 125.039062 L 218.285156 124.996094 L 173.542969 95.792969 L 118.292969 47.394531 L 88.152344 17.574219 L 88.136719 17.566406 L 41.734375 -8.25 L 65.394531 -49.949219 L 73.308594 -16.003906 L 94.214844 -16.898438 L 92.386719 -3.042969 L 92.53125 -3.042969 L 167.75 -3.226562 L 122.449219 -18.359375 L 122.425781 -18.359375 L 94.507812 -17.167969 L 96.488281 -32.167969 L 96.417969 -32.210938 L 65.574219 -50.367188 L 70.148438 -118.355469 L 69.894531 -118.371094 Z M 73.511719 -16.265625 L 65.636719 -50.035156 L 96.214844 -32.03125 L 94.25 -17.15625 L 73.511719 -16.269531 Z M 94.476562 -16.910156 L 122.410156 -18.101562 L 166.195312 -3.476562 L 92.679688 -3.296875 L 94.476562 -16.90625 Z M 94.476562 -16.910156 " fill-opacity="1" fill-rule="nonzero"/></g><g clip-path="url(#2522eda90b)"><path fill="#41e1f2" d="M 95.746094 -33.882812 L 95.621094 -33.660156 L 122.335938 -18.136719 L 140.375 11.640625 L 146.878906 59.214844 L 146.949219 59.238281 L 171.402344 68.898438 L 303.769531 103.078125 L 239.277344 182.660156 L 239.351562 182.742188 L 293.128906 240.707031 L 310.628906 283.988281 L 301.527344 315.148438 L 301.601562 315.203125 L 347.351562 347.574219 L 347.496094 347.367188 L 301.820312 315.046875 L 310.898438 283.972656 L 310.882812 283.933594 L 293.347656 240.570312 L 293.335938 240.550781 L 239.613281 182.648438 L 304.21875 102.929688 L 304.023438 102.882812 L 171.480469 68.65625 L 147.113281 59.03125 L 140.621094 11.550781 L 140.609375 11.527344 L 122.523438 -18.324219 L 122.492188 -18.339844 Z M 95.746094 -33.882812 " fill-opacity="1" fill-rule="nonzero"/></g><g clip-path="url(#c46a039dfc)"><path fill="#41e1f2" d="M 278.902344 168.546875 L 239.285156 182.578125 L 239.324219 182.695312 L 261.84375 248.242188 L 261.875 248.261719 L 296.269531 273.675781 L 301.546875 315.113281 L 301.800781 315.082031 L 296.507812 273.535156 L 296.464844 273.503906 L 262.058594 248.082031 L 239.609375 182.734375 L 278.769531 168.867188 L 320.488281 258.226562 L 318.589844 310.75 L 318.84375 310.757812 L 320.746094 258.175781 L 320.730469 258.144531 Z M 278.902344 168.546875 " fill-opacity="1" fill-rule="nonzero"/></g><path fill="#41e1f2" d="M 237.574219 180.980469 L 237.820312 181.050781 L 278.652344 45.527344 L 278.410156 45.453125 Z M 237.574219 180.980469 " fill-opacity="1" fill-rule="nonzero"/><path fill="#41e1f2" d="M 128.101562 5.746094 L 128.039062 5.765625 L 87.441406 17.511719 L 87.464844 17.59375 L 127.992188 5.863281 L 119.054688 49.230469 L 119.085938 49.246094 L 171.03125 69.082031 L 172.859375 95.449219 L 193.90625 110.5 L 193.957031 110.429688 L 172.941406 95.402344 L 171.113281 69.023438 L 171.085938 69.011719 L 119.152344 49.179688 Z M 128.101562 5.746094 " fill-opacity="1" fill-rule="nonzero"/><g clip-path="url(#09c8be5c04)"><path fill="#41e1f2" d="M 46.097656 -101.042969 L 46.015625 -101.015625 L 72.980469 -16.648438 L 73.003906 -16.644531 L 217.964844 13.554688 L 139.796875 11.605469 L 140.183594 11.699219 L 279.804688 45.332031 L 279.496094 45.171875 L 218.449219 13.566406 L 218.445312 13.566406 L 73.046875 -16.722656 Z M 279.144531 45.085938 L 140.59375 11.710938 L 218.425781 13.652344 Z M 279.144531 45.085938 " fill-opacity="1" fill-rule="nonzero"/></g><g clip-path="url(#52b3268e87)"><path fill="#41e1f2" d="M 279.46875 45.085938 L 279.433594 45.199219 L 259.085938 114.414062 L 218.285156 124.375 L 218.308594 124.457031 L 259.054688 114.507812 L 239.117188 182.3125 L 239.195312 182.285156 L 279.453125 169.128906 L 293.730469 241.351562 L 293.746094 241.359375 L 320.5625 258.21875 L 311 283.789062 L 311.003906 283.804688 L 319.125 310.859375 L 339.597656 368.433594 L 339.675781 368.40625 L 319.207031 310.832031 L 311.089844 283.792969 L 320.667969 258.183594 L 320.640625 258.164062 L 293.808594 241.296875 L 279.519531 169.019531 L 279.472656 169.035156 L 239.246094 182.179688 L 259.152344 114.484375 L 304.867188 103.320312 L 304.847656 103.277344 L 279.46875 45.089844 Z M 259.179688 114.390625 L 279.484375 45.335938 L 304.75 103.261719 Z M 259.179688 114.390625 " fill-opacity="1" fill-rule="nonzero"/></g><path fill="#41e1f2" d="M 172.878906 173.433594 L 226.453125 222.101562 L 226.507812 222.039062 L 172.933594 173.371094 Z M 172.878906 173.433594 " fill-opacity="1" fill-rule="nonzero"/><g clip-path="url(#d8bd1975ea)"><path fill="#41e1f2" d="M 226.824219 221.402344 L 226.75 221.441406 L 260.660156 288.777344 L 282.304688 293.636719 L 300.996094 314.976562 L 301.0625 314.917969 L 282.347656 293.5625 L 282.335938 293.558594 L 260.71875 288.703125 Z M 226.824219 221.402344 " fill-opacity="1" fill-rule="nonzero"/></g><g clip-path="url(#d9521b8018)"><path fill="#41e1f2" d="M 293.808594 241.273438 L 293.761719 241.28125 L 261.679688 247.703125 L 261.695312 247.785156 L 293.730469 241.375 L 296.480469 273.761719 L 311.019531 283.824219 L 311.070312 283.757812 L 296.558594 273.714844 Z M 293.808594 241.273438 " fill-opacity="1" fill-rule="nonzero"/></g><g clip-path="url(#ff5284ed2c)"><path fill="#41e1f2" d="M 279.523438 169.058594 L 279.449219 169.09375 L 320.574219 258.207031 L 319.125 310.875 L 319.148438 310.886719 L 368.125 334.417969 L 368.164062 334.339844 L 319.210938 310.820312 L 320.65625 258.191406 L 320.652344 258.179688 Z M 279.523438 169.058594 " fill-opacity="1" fill-rule="nonzero"/></g><g clip-path="url(#5930bcdc38)"><path fill="#41e1f2" d="M 166.152344 -4.226562 L 166.085938 -4.007812 L 146.960938 58.363281 L 147.023438 58.355469 L 170.148438 56.066406 L 171.03125 69.101562 L 171.082031 69.09375 L 279.292969 45.292969 L 193.886719 110.441406 L 193.886719 110.460938 L 193.683594 142.496094 L 193.769531 142.496094 L 193.96875 110.484375 L 279.652344 45.125 L 279.464844 45.167969 L 170.226562 55.972656 L 166.148438 -4.230469 Z M 147.078125 58.265625 L 166.097656 -3.761719 L 170.144531 55.984375 Z M 170.238281 56.0625 L 278.765625 45.324219 L 171.113281 69 Z M 170.238281 56.0625 " fill-opacity="1" fill-rule="nonzero"/></g><g clip-path="url(#76e14ca41a)"><path fill="#41e1f2" d="M 304.859375 103.199219 L 304.78125 103.257812 L 208.09375 177.546875 L 208.144531 177.613281 L 304.757812 103.382812 L 293.726562 241.320312 L 293.8125 241.328125 Z M 304.859375 103.199219 " fill-opacity="1" fill-rule="nonzero"/></g><g clip-path="url(#3010c03f61)"><path fill="#41e1f2" d="M 171.109375 69.03125 L 171.035156 69.070312 L 261.570312 247.605469 L 226.484375 222.007812 L 226.457031 222.027344 L 206.96875 238.175781 L 207.023438 238.238281 L 226.488281 222.113281 L 261.664062 247.773438 L 338.785156 341.132812 L 338.847656 341.078125 L 261.734375 247.730469 L 304.867188 103.242188 L 304.808594 103.246094 L 193.957031 110.417969 L 171.113281 69.027344 Z M 261.675781 247.628906 L 172.207031 71.195312 L 193.90625 110.507812 L 193.933594 110.507812 L 304.75 103.335938 Z M 261.675781 247.628906 " fill-opacity="1" fill-rule="nonzero"/></g><g clip-path="url(#2c3aa9c2b0)"><path fill="#41e1f2" d="M 78.289062 -25.75 L 190.859375 60.261719 L 190.914062 60.195312 L 78.339844 -25.816406 Z M 78.289062 -25.75 " fill-opacity="1" fill-rule="nonzero"/></g><path fill="#41e1f2" d="M 117.75 48.679688 L 117.667969 48.566406 C 117.019531 47.671875 117.511719 46.292969 118.398438 45.773438 C 119.425781 45.171875 120.542969 45.609375 121.1875 46.507812 L 121.273438 46.621094 C 121.917969 47.515625 121.425781 48.894531 120.539062 49.414062 C 119.511719 50.015625 118.398438 49.578125 117.75 48.679688 L 117.667969 48.566406 L 121.1875 46.507812 L 121.269531 46.621094 C 121.917969 47.515625 121.425781 48.894531 120.539062 49.414062 C 119.511719 50.015625 118.394531 49.578125 117.75 48.679688 Z M 117.75 48.679688 " fill-opacity="1" fill-rule="nonzero"/><path fill="#41e1f2" d="M 173.519531 93.230469 C 176.363281 93.230469 176.367188 97.648438 173.519531 97.648438 C 170.671875 97.648438 170.671875 93.230469 173.519531 93.230469 Z M 173.519531 93.230469 " fill-opacity="1" fill-rule="nonzero"/><path fill="#41e1f2" d="M 169.042969 69.445312 L 168.84375 69.167969 C 168.671875 68.894531 168.574219 68.601562 168.5625 68.28125 C 168.488281 67.964844 168.503906 67.648438 168.605469 67.332031 C 168.675781 67.023438 168.820312 66.753906 169.03125 66.523438 C 169.199219 66.265625 169.421875 66.058594 169.699219 65.910156 L 170.265625 65.671875 C 170.6875 65.558594 171.109375 65.558594 171.527344 65.671875 L 172.097656 65.910156 C 172.453125 66.121094 172.738281 66.40625 172.949219 66.765625 L 173.148438 67.039062 C 173.320312 67.3125 173.417969 67.605469 173.429688 67.925781 C 173.5 68.242188 173.484375 68.558594 173.386719 68.875 C 173.316406 69.183594 173.171875 69.453125 172.960938 69.683594 C 172.792969 69.941406 172.570312 70.148438 172.292969 70.296875 L 171.726562 70.535156 C 171.304688 70.652344 170.882812 70.652344 170.460938 70.535156 L 169.894531 70.296875 C 169.539062 70.085938 169.253906 69.800781 169.042969 69.445312 Z M 169.042969 69.445312 " fill-opacity="1" fill-rule="nonzero"/><g clip-path="url(#a6dccfcdae)"><path fill="#41e1f2" d="M 276.324219 46.765625 C 276.296875 46.730469 276.269531 46.695312 276.242188 46.65625 L 276.640625 47.175781 C 276.617188 47.144531 276.589844 47.109375 276.558594 47.085938 L 277.074219 47.484375 C 277.074219 47.484375 277.0625 47.476562 277.054688 47.472656 L 277.664062 47.730469 C 277.652344 47.722656 277.644531 47.722656 277.632812 47.722656 L 278.308594 47.8125 C 278.308594 47.8125 278.292969 47.8125 278.285156 47.8125 L 278.964844 47.722656 C 278.949219 47.722656 278.941406 47.726562 278.929688 47.730469 L 279.539062 47.472656 C 279.472656 47.503906 279.417969 47.546875 279.363281 47.589844 C 279.070312 47.773438 278.753906 47.875 278.414062 47.890625 C 278.074219 47.96875 277.738281 47.953125 277.398438 47.84375 C 277.066406 47.765625 276.777344 47.613281 276.53125 47.390625 C 276.253906 47.210938 276.035156 46.972656 275.875 46.671875 L 275.621094 46.066406 C 275.5 45.613281 275.5 45.160156 275.621094 44.707031 L 275.875 44.097656 C 276.101562 43.714844 276.40625 43.410156 276.789062 43.183594 C 276.84375 43.144531 276.898438 43.105469 276.960938 43.074219 C 277.042969 43.03125 277.5 42.835938 277.589844 42.808594 C 277.597656 42.808594 277.605469 42.804688 277.613281 42.800781 C 277.683594 42.78125 278.234375 42.710938 278.308594 42.710938 C 278.375 42.710938 278.9375 42.789062 279 42.804688 C 279.226562 42.855469 279.449219 42.949219 279.644531 43.078125 C 279.730469 43.132812 280.105469 43.417969 280.175781 43.488281 C 280.183594 43.496094 280.191406 43.503906 280.199219 43.507812 C 280.402344 43.714844 280.558594 43.960938 280.726562 44.195312 C 280.914062 44.488281 281.015625 44.804688 281.03125 45.144531 C 281.105469 45.480469 281.089844 45.820312 280.984375 46.160156 C 280.90625 46.492188 280.753906 46.78125 280.53125 47.027344 C 280.347656 47.304688 280.113281 47.523438 279.8125 47.683594 L 279.207031 47.941406 C 278.753906 48.0625 278.300781 48.0625 277.851562 47.941406 L 277.242188 47.683594 C 276.859375 47.457031 276.554688 47.152344 276.328125 46.769531 Z M 276.324219 46.765625 " fill-opacity="1" fill-rule="nonzero"/></g><path fill="#41e1f2" d="M 239.382812 180.308594 C 242.222656 180.308594 242.230469 184.730469 239.382812 184.730469 C 236.535156 184.730469 236.535156 180.308594 239.382812 180.308594 Z M 239.382812 180.308594 " fill-opacity="1" fill-rule="nonzero"/><path fill="#41e1f2" d="M 261.488281 245.425781 C 264.109375 245.425781 264.117188 249.507812 261.488281 249.507812 C 258.859375 249.507812 258.859375 245.425781 261.488281 245.425781 Z M 261.488281 245.425781 " fill-opacity="1" fill-rule="nonzero"/><path fill="#41e1f2" d="M 208.039062 174.664062 C 210.554688 174.664062 210.554688 178.574219 208.039062 178.574219 C 205.519531 178.574219 205.519531 174.664062 208.039062 174.664062 Z M 208.039062 174.664062 " fill-opacity="1" fill-rule="nonzero"/><path fill="#41e1f2" d="M 217.910156 123.367188 C 220.207031 123.367188 220.210938 126.9375 217.910156 126.9375 C 215.613281 126.9375 215.613281 123.367188 217.910156 123.367188 Z M 217.910156 123.367188 " fill-opacity="1" fill-rule="nonzero"/><path fill="#41e1f2" d="M 192.628906 139.90625 C 195.363281 139.90625 195.367188 144.160156 192.628906 144.160156 C 189.894531 144.160156 189.894531 139.90625 192.628906 139.90625 Z M 192.628906 139.90625 " fill-opacity="1" fill-rule="nonzero"/><path fill="#41e1f2" d="M 144.117188 58.871094 L 143.863281 58.519531 C 143.6875 58.246094 143.59375 57.953125 143.582031 57.632812 C 143.507812 57.316406 143.523438 57 143.621094 56.683594 C 143.695312 56.375 143.839844 56.105469 144.050781 55.875 C 144.21875 55.617188 144.441406 55.410156 144.71875 55.261719 L 145.285156 55.023438 C 145.707031 54.90625 146.128906 54.90625 146.546875 55.023438 L 147.117188 55.261719 C 147.472656 55.472656 147.757812 55.757812 147.96875 56.113281 L 148.023438 56.191406 C 148.199219 56.464844 148.292969 56.757812 148.308594 57.078125 C 148.378906 57.394531 148.363281 57.710938 148.265625 58.027344 C 148.191406 58.335938 148.046875 58.605469 147.839844 58.835938 C 147.667969 59.09375 147.445312 59.300781 147.171875 59.449219 L 146.601562 59.6875 C 146.179688 59.804688 145.761719 59.804688 145.339844 59.6875 L 144.769531 59.449219 C 144.414062 59.238281 144.128906 58.953125 143.917969 58.597656 L 143.863281 58.519531 L 147.96875 56.117188 L 148.226562 56.46875 C 148.398438 56.742188 148.492188 57.035156 148.507812 57.355469 C 148.578125 57.671875 148.5625 57.988281 148.464844 58.304688 C 148.390625 58.613281 148.25 58.882812 148.039062 59.113281 C 147.871094 59.371094 147.648438 59.578125 147.371094 59.726562 L 146.804688 59.964844 C 146.382812 60.082031 145.960938 60.082031 145.539062 59.964844 L 144.972656 59.726562 C 144.613281 59.515625 144.328125 59.230469 144.117188 58.871094 Z M 144.117188 58.871094 " fill-opacity="1" fill-rule="nonzero"/><path fill="#41e1f2" d="M 85.847656 18.03125 L 85.648438 17.753906 C 85.488281 17.5 85.402344 17.226562 85.386719 16.933594 C 85.320312 16.640625 85.335938 16.34375 85.425781 16.054688 C 85.496094 15.765625 85.628906 15.515625 85.824219 15.300781 C 85.980469 15.058594 86.183594 14.871094 86.441406 14.730469 L 86.972656 14.507812 C 87.363281 14.402344 87.753906 14.402344 88.144531 14.507812 L 88.671875 14.730469 C 89.003906 14.929688 89.269531 15.191406 89.464844 15.523438 L 89.664062 15.800781 C 89.824219 16.054688 89.910156 16.328125 89.925781 16.621094 C 89.992188 16.914062 89.976562 17.210938 89.886719 17.5 C 89.820312 17.789062 89.6875 18.039062 89.492188 18.253906 C 89.335938 18.496094 89.128906 18.683594 88.871094 18.824219 L 88.34375 19.046875 C 87.953125 19.152344 87.558594 19.152344 87.167969 19.046875 L 86.640625 18.824219 C 86.308594 18.625 86.042969 18.363281 85.847656 18.03125 Z M 85.847656 18.03125 " fill-opacity="1" fill-rule="nonzero"/><path fill="#41e1f2" d="M 218.632812 12.183594 C 220.820312 12.183594 220.824219 15.582031 218.632812 15.582031 C 216.445312 15.582031 216.445312 12.183594 218.632812 12.183594 Z M 218.632812 12.183594 " fill-opacity="1" fill-rule="nonzero"/><path fill="#41e1f2" d="M 139.796875 9.492188 C 141.875 9.492188 141.878906 12.722656 139.796875 12.722656 C 137.714844 12.722656 137.714844 9.492188 139.796875 9.492188 Z M 139.796875 9.492188 " fill-opacity="1" fill-rule="nonzero"/><path fill="#41e1f2" d="M 192.414062 110.960938 L 192.214844 110.683594 C 192.101562 110.511719 192.042969 110.320312 192.03125 110.117188 C 191.984375 109.910156 191.996094 109.710938 192.058594 109.503906 C 192.105469 109.304688 192.199219 109.132812 192.332031 108.984375 C 192.4375 108.820312 192.582031 108.6875 192.761719 108.589844 L 193.128906 108.4375 C 193.398438 108.363281 193.667969 108.363281 193.941406 108.4375 L 194.304688 108.589844 C 194.535156 108.726562 194.71875 108.910156 194.855469 109.140625 L 195.054688 109.414062 C 195.167969 109.589844 195.226562 109.78125 195.234375 109.984375 C 195.28125 110.1875 195.269531 110.390625 195.207031 110.59375 C 195.160156 110.792969 195.070312 110.96875 194.933594 111.117188 C 194.828125 111.28125 194.683594 111.414062 194.503906 111.511719 L 194.140625 111.664062 C 193.867188 111.738281 193.597656 111.738281 193.324219 111.664062 L 192.960938 111.511719 C 192.730469 111.375 192.546875 111.191406 192.414062 110.960938 Z M 192.414062 110.960938 " fill-opacity="1" fill-rule="nonzero"/><path fill="#41e1f2" d="M 227.152344 222.722656 L 226.898438 222.90625 C 226.714844 223.023438 226.515625 223.085938 226.300781 223.097656 C 226.085938 223.144531 225.871094 223.136719 225.65625 223.070312 C 225.445312 223.019531 225.265625 222.921875 225.109375 222.78125 C 224.933594 222.664062 224.792969 222.515625 224.691406 222.324219 L 224.527344 221.9375 C 224.453125 221.652344 224.453125 221.367188 224.527344 221.082031 L 224.691406 220.695312 C 224.835938 220.453125 225.027344 220.257812 225.269531 220.113281 L 225.523438 219.933594 C 225.707031 219.816406 225.90625 219.75 226.121094 219.742188 C 226.335938 219.695312 226.550781 219.703125 226.765625 219.769531 C 226.976562 219.820312 227.160156 219.917969 227.316406 220.058594 C 227.488281 220.171875 227.628906 220.324219 227.730469 220.511719 L 227.894531 220.898438 C 227.96875 221.183594 227.96875 221.472656 227.894531 221.757812 L 227.730469 222.144531 C 227.589844 222.386719 227.394531 222.578125 227.152344 222.722656 Z M 227.152344 222.722656 " fill-opacity="1" fill-rule="nonzero"/><path fill="#41e1f2" d="M 265.394531 193.519531 C 267.472656 193.519531 267.476562 196.75 265.394531 196.75 C 263.3125 196.75 263.3125 193.519531 265.394531 193.519531 Z M 265.394531 193.519531 " fill-opacity="1" fill-rule="nonzero"/><g clip-path="url(#2ef632bac1)"><path fill="#41e1f2" d="M 278.859375 170.359375 L 278.410156 170.265625 C 278.199219 170.214844 278.015625 170.117188 277.859375 169.976562 C 277.683594 169.863281 277.546875 169.710938 277.445312 169.523438 C 277.328125 169.335938 277.261719 169.136719 277.253906 168.921875 C 277.203125 168.707031 277.214844 168.492188 277.28125 168.277344 C 277.40625 167.886719 277.648438 167.507812 278.023438 167.3125 L 278.410156 167.148438 C 278.695312 167.070312 278.980469 167.070312 279.265625 167.148438 L 279.71875 167.242188 C 279.929688 167.289062 280.109375 167.386719 280.265625 167.53125 C 280.441406 167.644531 280.582031 167.796875 280.683594 167.984375 C 280.800781 168.171875 280.863281 168.371094 280.875 168.585938 C 280.921875 168.800781 280.914062 169.015625 280.84375 169.230469 C 280.71875 169.621094 280.476562 169.996094 280.101562 170.195312 L 279.71875 170.359375 C 279.433594 170.433594 279.144531 170.433594 278.859375 170.359375 Z M 278.859375 170.359375 " fill-opacity="1" fill-rule="nonzero"/></g><g clip-path="url(#ae0e240ccb)"><path fill="#41e1f2" d="M 282.828125 291.28125 C 285.34375 291.28125 285.347656 295.191406 282.828125 295.191406 C 280.3125 295.191406 280.3125 291.28125 282.828125 291.28125 Z M 282.828125 291.28125 " fill-opacity="1" fill-rule="nonzero"/></g><path fill="#41e1f2" d="M 261.199219 289.199219 L 260.949219 289.382812 C 260.753906 289.507812 260.542969 289.574219 260.316406 289.585938 C 260.089844 289.636719 259.867188 289.625 259.640625 289.554688 C 259.417969 289.5 259.226562 289.398438 259.0625 289.25 C 258.875 289.128906 258.730469 288.972656 258.625 288.773438 L 258.453125 288.367188 C 258.371094 288.066406 258.371094 287.765625 258.453125 287.460938 L 258.625 287.054688 C 258.773438 286.800781 258.976562 286.597656 259.234375 286.445312 L 259.484375 286.261719 C 259.679688 286.136719 259.890625 286.070312 260.117188 286.058594 C 260.34375 286.007812 260.570312 286.019531 260.792969 286.089844 C 261.015625 286.144531 261.207031 286.246094 261.371094 286.394531 C 261.558594 286.515625 261.703125 286.675781 261.8125 286.871094 L 261.980469 287.277344 C 262.0625 287.582031 262.0625 287.882812 261.980469 288.183594 L 261.8125 288.589844 C 261.660156 288.84375 261.457031 289.050781 261.199219 289.199219 Z M 261.199219 289.199219 " fill-opacity="1" fill-rule="nonzero"/><g clip-path="url(#2b72db4660)"><path fill="#41e1f2" d="M 261.464844 247.484375 L 301.777344 315.246094 L 301.8125 315.222656 L 261.5 247.464844 Z M 261.464844 247.484375 " fill-opacity="1" fill-rule="nonzero"/></g><path fill="#41e1f2" d="M 207.097656 235.59375 C 209.285156 235.59375 209.289062 238.996094 207.097656 238.996094 C 204.90625 238.996094 204.90625 235.59375 207.097656 235.59375 Z M 207.097656 235.59375 " fill-opacity="1" fill-rule="nonzero"/><path fill="#41e1f2" d="M 171.855469 174.402344 L 171.660156 174.125 C 171.554688 173.960938 171.496094 173.78125 171.488281 173.589844 C 171.445312 173.398438 171.453125 173.203125 171.511719 173.011719 C 171.554688 172.824219 171.644531 172.660156 171.769531 172.519531 C 171.871094 172.363281 172.007812 172.238281 172.175781 172.148438 L 172.519531 172.003906 C 172.777344 171.933594 173.03125 171.933594 173.289062 172.003906 L 173.632812 172.148438 C 173.851562 172.277344 174.023438 172.449219 174.152344 172.667969 L 174.347656 172.941406 C 174.453125 173.109375 174.511719 173.289062 174.519531 173.480469 C 174.5625 173.671875 174.554688 173.863281 174.496094 174.054688 C 174.453125 174.246094 174.363281 174.410156 174.238281 174.546875 C 174.136719 174.707031 174 174.828125 173.832031 174.921875 L 173.488281 175.066406 C 173.230469 175.132812 172.976562 175.132812 172.71875 175.066406 L 172.375 174.921875 C 172.15625 174.789062 171.984375 174.617188 171.855469 174.402344 Z M 171.855469 174.402344 " fill-opacity="1" fill-rule="nonzero"/><path fill="#41e1f2" d="M 127.941406 3.714844 C 130.675781 3.714844 130.675781 7.964844 127.941406 7.964844 C 125.203125 7.964844 125.203125 3.714844 127.941406 3.714844 Z M 127.941406 3.714844 " fill-opacity="1" fill-rule="nonzero"/><path fill="#41e1f2" d="M 170.503906 54.402344 C 172.253906 54.402344 172.253906 57.121094 170.503906 57.121094 C 168.75 57.121094 168.75 54.402344 170.503906 54.402344 Z M 170.503906 54.402344 " fill-opacity="1" fill-rule="nonzero"/><path fill="#41e1f2" d="M 152.3125 18.996094 L 152.082031 19.164062 C 151.945312 19.25 151.796875 19.296875 151.636719 19.304688 C 151.480469 19.339844 151.324219 19.332031 151.164062 19.28125 C 151.011719 19.246094 150.875 19.175781 150.761719 19.070312 C 150.632812 18.984375 150.527344 18.875 150.453125 18.734375 L 150.332031 18.453125 C 150.277344 18.242188 150.277344 18.03125 150.332031 17.820312 L 150.453125 17.535156 C 150.558594 17.355469 150.703125 17.214844 150.878906 17.109375 L 151.113281 16.941406 C 151.25 16.855469 151.398438 16.804688 151.554688 16.800781 C 151.714844 16.765625 151.871094 16.769531 152.027344 16.820312 C 152.183594 16.859375 152.316406 16.929688 152.433594 17.035156 C 152.5625 17.117188 152.664062 17.230469 152.738281 17.367188 L 152.859375 17.652344 C 152.914062 17.863281 152.914062 18.074219 152.859375 18.285156 L 152.738281 18.566406 C 152.632812 18.746094 152.492188 18.890625 152.3125 18.996094 Z M 152.3125 18.996094 " fill-opacity="1" fill-rule="nonzero"/><path fill="#41e1f2" d="M 169.449219 26.203125 C 171.527344 26.203125 171.53125 29.433594 169.449219 29.433594 C 167.367188 29.433594 167.367188 26.203125 169.449219 26.203125 Z M 169.449219 26.203125 " fill-opacity="1" fill-rule="nonzero"/><path fill="#41e1f2" d="M 221.441406 96.703125 L 221.207031 96.871094 C 220.996094 97.007812 220.761719 97.082031 220.515625 97.09375 C 220.265625 97.152344 220.019531 97.140625 219.769531 97.0625 C 219.523438 97.003906 219.3125 96.890625 219.132812 96.726562 C 218.929688 96.59375 218.769531 96.421875 218.652344 96.199219 L 218.464844 95.753906 C 218.375 95.421875 218.375 95.089844 218.464844 94.757812 L 218.652344 94.3125 C 218.816406 94.03125 219.039062 93.808594 219.324219 93.640625 L 219.554688 93.472656 C 219.769531 93.335938 220.003906 93.261719 220.25 93.25 C 220.5 93.191406 220.746094 93.203125 220.996094 93.28125 C 221.238281 93.339844 221.453125 93.453125 221.632812 93.617188 C 221.835938 93.75 221.996094 93.925781 222.113281 94.144531 L 222.300781 94.589844 C 222.390625 94.921875 222.390625 95.253906 222.300781 95.585938 L 222.113281 96.03125 C 221.945312 96.3125 221.722656 96.539062 221.441406 96.703125 Z M 221.441406 96.703125 " fill-opacity="1" fill-rule="nonzero"/><path fill="#41e1f2" d="M 201.726562 83.746094 C 203.695312 83.746094 203.699219 86.804688 201.726562 86.804688 C 199.757812 86.804688 199.757812 83.746094 201.726562 83.746094 Z M 201.726562 83.746094 " fill-opacity="1" fill-rule="nonzero"/><path fill="#41e1f2" d="M 110.625 58.101562 L 110.792969 58.332031 C 110.878906 58.46875 110.925781 58.617188 110.933594 58.777344 C 110.96875 58.933594 110.960938 59.09375 110.910156 59.25 C 110.875 59.40625 110.804688 59.539062 110.699219 59.65625 C 110.613281 59.785156 110.503906 59.886719 110.363281 59.960938 L 110.082031 60.082031 C 109.871094 60.136719 109.660156 60.136719 109.449219 60.082031 L 109.164062 59.960938 C 108.988281 59.855469 108.84375 59.710938 108.738281 59.535156 L 108.570312 59.300781 C 108.484375 59.164062 108.4375 59.015625 108.429688 58.859375 C 108.394531 58.703125 108.402344 58.542969 108.453125 58.386719 C 108.488281 58.230469 108.558594 58.097656 108.664062 57.980469 C 108.746094 57.851562 108.859375 57.75 108.996094 57.675781 L 109.28125 57.554688 C 109.492188 57.496094 109.703125 57.496094 109.914062 57.554688 L 110.195312 57.675781 C 110.375 57.78125 110.519531 57.921875 110.625 58.101562 Z M 110.625 58.101562 " fill-opacity="1" fill-rule="nonzero"/><path fill="#41e1f2" d="M 226.296875 122.847656 C 228.046875 122.847656 228.046875 125.566406 226.296875 125.566406 C 224.546875 125.566406 224.546875 122.847656 226.296875 122.847656 Z M 226.296875 122.847656 " fill-opacity="1" fill-rule="nonzero"/><path fill="#41e1f2" d="M 220.425781 165.550781 C 222.394531 165.550781 222.394531 168.613281 220.425781 168.613281 C 218.453125 168.613281 218.453125 165.550781 220.425781 165.550781 Z M 220.425781 165.550781 " fill-opacity="1" fill-rule="nonzero"/><path fill="#41e1f2" d="M 213.339844 151.171875 C 214.871094 151.171875 214.871094 153.550781 213.339844 153.550781 C 211.808594 153.550781 211.808594 151.171875 213.339844 151.171875 Z M 213.339844 151.171875 " fill-opacity="1" fill-rule="nonzero"/><path fill="#41e1f2" d="M 124.171875 31.746094 C 126.136719 31.746094 126.140625 34.808594 124.171875 34.808594 C 122.199219 34.808594 122.199219 31.746094 124.171875 31.746094 Z M 124.171875 31.746094 " fill-opacity="1" fill-rule="nonzero"/><path fill="#41e1f2" d="M 264.96875 208.453125 C 266.5 208.453125 266.5 210.835938 264.96875 210.835938 C 263.433594 210.835938 263.433594 208.453125 264.96875 208.453125 Z M 264.96875 208.453125 " fill-opacity="1" fill-rule="nonzero"/></svg>